<svg width="29" height="32" viewBox="0 0 29 32" fill="none" xmlns="http://www.w3.org/2000/svg">
<path d="M13.3826 0H8.92174V2.16034H4.46087V0H0V15.1224H4.46087V6.48101H8.92174V15.1224H13.3826V0Z" fill="#EDF2F7"/>
<path d="M24.5391 4.32068H29V2.16034H26.7696V0H17.8478V2.16034H15.6174V12.962H17.8478V15.1224H26.7696V12.962H29V10.8017H24.5391V12.962H20.0783V2.16034H24.5391V4.32068Z" fill="#EDF2F7"/>
<path d="M4.46087 19.038H13.3826V16.8776H2.23043V19.038H0V21.1983H2.23043V23.3587H8.92174V29.8397H4.46087V27.6793H0V29.8397H2.23043V32H11.1522V29.8397H13.3826V23.3587H11.1522V21.1983H4.46087V19.038Z" fill="#EDF2F7"/>
<path d="M29 16.8776H24.5391V19.038H20.0783V16.8776H15.6174V32H20.0783V23.3587H24.5391V32H29V16.8776Z" fill="#EDF2F7"/>
</svg>
