<svg width="172" height="34" viewBox="0 0 172 34" fill="none" xmlns="http://www.w3.org/2000/svg">
<path d="M12.4597 0H8.30645V2.16034H4.15322V0H0V15.1224H4.15322V6.48101H8.30645V15.1224H12.4597V0Z" fill="#EDF2F7"/>
<path d="M22.8468 4.32068H27V2.16034H24.9234V0H16.6169V2.16034H14.5403V12.962H16.6169V15.1224H24.9234V12.962H27V10.8017H22.8468V12.962H18.6936V2.16034H22.8468V4.32068Z" fill="#EDF2F7"/>
<path d="M4.15322 19.038H12.4597V16.8776H2.07661V19.038H0V21.1983H2.07661V23.3587H8.30645V29.8397H4.15322V27.6793H0V29.8397H2.07661V32H10.3831V29.8397H12.4597V23.3587H10.3831V21.1983H4.15322V19.038Z" fill="#EDF2F7"/>
<path d="M27 16.8776H22.8468V19.038H18.6936V16.8776H14.5403V32H18.6936V23.3587H22.8468V32H27V16.8776Z" fill="#EDF2F7"/>
<path d="M34.352 2.8H38.064L38.704 11.216V12.848H39.088V11.216L39.728 2.8H43.44V14H41.52V6.512L41.712 3.952H41.328L40.496 14H37.328L36.464 3.952H36.08L36.272 6.512V14H34.352V2.8ZM48.7249 12.304C49.1302 12.304 49.4609 12.2453 49.7169 12.128C49.9835 12 50.1862 11.8347 50.3249 11.632C50.4742 11.4187 50.5755 11.1787 50.6289 10.912C50.6822 10.6347 50.7089 10.352 50.7089 10.064V9.776H52.8209V10.064C52.8209 11.3973 52.4689 12.4267 51.7649 13.152C51.0715 13.8667 50.0582 14.224 48.7249 14.224C47.4449 14.224 46.4315 13.8347 45.6849 13.056C44.9382 12.2773 44.5649 11.1413 44.5649 9.648V7.152C44.5649 6.43733 44.6609 5.79733 44.8529 5.232C45.0449 4.656 45.3222 4.176 45.6849 3.792C46.0475 3.39733 46.4849 3.09867 46.9969 2.896C47.5089 2.68267 48.0849 2.576 48.7249 2.576C49.3862 2.576 49.9729 2.672 50.4849 2.864C50.9969 3.056 51.4235 3.33333 51.7649 3.696C52.1169 4.05867 52.3782 4.496 52.5489 5.008C52.7302 5.52 52.8209 6.096 52.8209 6.736V7.024H50.7089V6.736C50.7089 6.46933 50.6769 6.20267 50.6129 5.936C50.5489 5.66933 50.4422 5.42933 50.2929 5.216C50.1435 5.00267 49.9409 4.832 49.6849 4.704C49.4289 4.56533 49.1089 4.496 48.7249 4.496C48.3729 4.496 48.0689 4.56533 47.8129 4.704C47.5569 4.832 47.3435 5.01333 47.1729 5.248C47.0022 5.472 46.8742 5.73867 46.7889 6.048C46.7142 6.34667 46.6769 6.66133 46.6769 6.992V9.808C46.6769 10.1707 46.7142 10.5067 46.7889 10.816C46.8635 11.1147 46.9809 11.376 47.1409 11.6C47.3009 11.824 47.5089 12 47.7649 12.128C48.0315 12.2453 48.3515 12.304 48.7249 12.304ZM40.816 22.224C40.816 21.776 40.64 21.3867 40.288 21.056C39.9467 20.7253 39.4613 20.56 38.832 20.56C38.2987 20.56 37.8773 20.672 37.568 20.896C37.2587 21.1093 37.104 21.4027 37.104 21.776C37.104 21.968 37.1413 22.144 37.216 22.304C37.2907 22.4533 37.4187 22.592 37.6 22.72C37.792 22.8373 38.0373 22.944 38.336 23.04C38.6453 23.136 39.0347 23.2267 39.504 23.312C40.6773 23.5253 41.5733 23.8827 42.192 24.384C42.8107 24.8853 43.12 25.6267 43.12 26.608V26.8C43.12 27.3227 43.024 27.7973 42.832 28.224C42.6507 28.64 42.384 28.9973 42.032 29.296C41.68 29.5947 41.2533 29.824 40.752 29.984C40.2507 30.144 39.6853 30.224 39.056 30.224C38.32 30.224 37.6693 30.1227 37.104 29.92C36.5493 29.7067 36.0853 29.4187 35.712 29.056C35.3387 28.6827 35.056 28.2507 34.864 27.76C34.672 27.2587 34.576 26.7147 34.576 26.128V25.648H36.688V26.032C36.688 26.704 36.88 27.2427 37.264 27.648C37.6587 28.0427 38.2667 28.24 39.088 28.24C39.728 28.24 40.2027 28.1013 40.512 27.824C40.8213 27.5467 40.976 27.216 40.976 26.832C40.976 26.6507 40.944 26.48 40.88 26.32C40.816 26.1493 40.704 26 40.544 25.872C40.384 25.7333 40.1653 25.6107 39.888 25.504C39.6107 25.3973 39.2587 25.3067 38.832 25.232C38.2667 25.136 37.7493 25.0133 37.28 24.864C36.8107 24.704 36.4 24.496 36.048 24.24C35.7067 23.984 35.44 23.664 35.248 23.28C35.056 22.896 34.96 22.4267 34.96 21.872V21.776C34.96 21.3173 35.0507 20.896 35.232 20.512C35.424 20.1173 35.6853 19.776 36.016 19.488C36.3573 19.2 36.7627 18.976 37.232 18.816C37.712 18.656 38.2453 18.576 38.832 18.576C39.4933 18.576 40.08 18.672 40.592 18.864C41.104 19.0453 41.5307 19.296 41.872 19.616C42.224 19.936 42.4853 20.304 42.656 20.72C42.8373 21.136 42.928 21.5733 42.928 22.032V22.608H40.816V22.224ZM46.8209 26.688C46.8315 26.9227 46.8849 27.1413 46.9809 27.344C47.0875 27.536 47.2262 27.7067 47.3969 27.856C47.5782 27.9947 47.7809 28.1067 48.0049 28.192C48.2395 28.2667 48.4849 28.304 48.7409 28.304C49.2422 28.304 49.6262 28.2187 49.8929 28.048C50.1595 27.8667 50.3515 27.6533 50.4689 27.408L52.1969 28.368C52.1009 28.5707 51.9675 28.784 51.7969 29.008C51.6262 29.2213 51.4022 29.4187 51.1249 29.6C50.8582 29.7813 50.5275 29.9307 50.1329 30.048C49.7489 30.1653 49.2955 30.224 48.7729 30.224C48.1755 30.224 47.6315 30.128 47.1409 29.936C46.6502 29.744 46.2235 29.4667 45.8609 29.104C45.5089 28.7413 45.2315 28.2987 45.0289 27.776C44.8369 27.2533 44.7409 26.6613 44.7409 26V25.904C44.7409 25.296 44.8422 24.7413 45.0449 24.24C45.2582 23.7387 45.5462 23.312 45.9089 22.96C46.2715 22.608 46.6929 22.336 47.1729 22.144C47.6635 21.9413 48.1862 21.84 48.7409 21.84C49.4235 21.84 50.0102 21.9627 50.5009 22.208C50.9915 22.4427 51.3969 22.7467 51.7169 23.12C52.0369 23.4827 52.2715 23.888 52.4209 24.336C52.5702 24.7733 52.6449 25.2 52.6449 25.616V26.688H46.8209ZM48.7249 23.664C48.2129 23.664 47.7969 23.7973 47.4769 24.064C47.1569 24.32 46.9489 24.6187 46.8529 24.96H50.5969C50.5329 24.5867 50.3302 24.2773 49.9889 24.032C49.6582 23.7867 49.2369 23.664 48.7249 23.664ZM54.4578 22.064H57.8177V23.216H58.1058C58.2551 22.7787 58.5058 22.4427 58.8578 22.208C59.2204 21.9627 59.6524 21.84 60.1538 21.84C60.9431 21.84 61.5778 22.0907 62.0578 22.592C62.5378 23.0827 62.7778 23.8347 62.7778 24.848V25.2L60.6978 25.392V25.168C60.6978 24.7307 60.5858 24.384 60.3618 24.128C60.1378 23.8613 59.8018 23.728 59.3538 23.728C58.9058 23.728 58.5538 23.8827 58.2977 24.192C58.0418 24.5013 57.9138 24.944 57.9138 25.52V28.08H59.7378V30H54.2658V28.08H55.8978V23.984H54.4578V22.064ZM64.0786 22.064H66.2546L68.1266 29.04H68.4146L70.2866 22.064H72.4626L70.1906 30H66.3506L64.0786 22.064ZM76.2115 26.688C76.2222 26.9227 76.2755 27.1413 76.3715 27.344C76.4782 27.536 76.6168 27.7067 76.7875 27.856C76.9688 27.9947 77.1715 28.1067 77.3955 28.192C77.6302 28.2667 77.8755 28.304 78.1315 28.304C78.6328 28.304 79.0168 28.2187 79.2835 28.048C79.5502 27.8667 79.7422 27.6533 79.8595 27.408L81.5875 28.368C81.4915 28.5707 81.3582 28.784 81.1875 29.008C81.0168 29.2213 80.7928 29.4187 80.5155 29.6C80.2488 29.7813 79.9182 29.9307 79.5235 30.048C79.1395 30.1653 78.6862 30.224 78.1635 30.224C77.5662 30.224 77.0222 30.128 76.5315 29.936C76.0408 29.744 75.6142 29.4667 75.2515 29.104C74.8995 28.7413 74.6222 28.2987 74.4195 27.776C74.2275 27.2533 74.1315 26.6613 74.1315 26V25.904C74.1315 25.296 74.2328 24.7413 74.4355 24.24C74.6488 23.7387 74.9368 23.312 75.2995 22.96C75.6622 22.608 76.0835 22.336 76.5635 22.144C77.0542 21.9413 77.5768 21.84 78.1315 21.84C78.8142 21.84 79.4008 21.9627 79.8915 22.208C80.3822 22.4427 80.7875 22.7467 81.1075 23.12C81.4275 23.4827 81.6622 23.888 81.8115 24.336C81.9608 24.7733 82.0355 25.2 82.0355 25.616V26.688H76.2115ZM78.1155 23.664C77.6035 23.664 77.1875 23.7973 76.8675 24.064C76.5475 24.32 76.3395 24.6187 76.2435 24.96H79.9875C79.9235 24.5867 79.7208 24.2773 79.3795 24.032C79.0488 23.7867 78.6275 23.664 78.1155 23.664ZM83.8484 22.064H87.2084V23.216H87.4964C87.6457 22.7787 87.8964 22.4427 88.2484 22.208C88.611 21.9627 89.043 21.84 89.5444 21.84C90.3337 21.84 90.9684 22.0907 91.4484 22.592C91.9284 23.0827 92.1684 23.8347 92.1684 24.848V25.2L90.0884 25.392V25.168C90.0884 24.7307 89.9764 24.384 89.7524 24.128C89.5284 23.8613 89.1924 23.728 88.7444 23.728C88.2964 23.728 87.9444 23.8827 87.6884 24.192C87.4324 24.5013 87.3044 24.944 87.3044 25.52V28.08H89.1284V30H83.6564V28.08H85.2884V23.984H83.8484V22.064ZM102.93 18.8H106.642L107.282 27.216V28.848H107.666V27.216L108.306 18.8H112.018V30H110.098V22.512L110.29 19.952H109.906L109.074 30H105.906L105.042 19.952H104.658L104.85 22.512V30H102.93V18.8ZM118.759 28.848C118.546 29.3493 118.247 29.7067 117.863 29.92C117.479 30.1227 117.031 30.224 116.519 30.224C116.039 30.224 115.586 30.1333 115.159 29.952C114.743 29.7707 114.375 29.504 114.055 29.152C113.735 28.8 113.479 28.3733 113.287 27.872C113.106 27.3707 113.015 26.8 113.015 26.16V25.904C113.015 25.2747 113.106 24.7093 113.287 24.208C113.468 23.7067 113.714 23.28 114.023 22.928C114.332 22.576 114.69 22.3093 115.095 22.128C115.511 21.936 115.954 21.84 116.423 21.84C116.988 21.84 117.442 21.936 117.783 22.128C118.135 22.32 118.412 22.6187 118.615 23.024H118.903V22.064H120.919V27.6C120.919 27.92 121.063 28.08 121.351 28.08H121.655V30H120.279C119.916 30 119.618 29.8933 119.383 29.68C119.159 29.4667 119.047 29.1893 119.047 28.848H118.759ZM116.967 28.304C117.554 28.304 118.023 28.112 118.375 27.728C118.727 27.3333 118.903 26.8 118.903 26.128V25.936C118.903 25.264 118.727 24.736 118.375 24.352C118.023 23.9573 117.554 23.76 116.967 23.76C116.38 23.76 115.911 23.9573 115.559 24.352C115.207 24.736 115.031 25.264 115.031 25.936V26.128C115.031 26.8 115.207 27.3333 115.559 27.728C115.911 28.112 116.38 28.304 116.967 28.304ZM125.436 30H123.42V22.064H125.436V23.248H125.724C125.905 22.8 126.199 22.4533 126.604 22.208C127.009 21.9627 127.484 21.84 128.028 21.84C128.412 21.84 128.769 21.904 129.1 22.032C129.441 22.1493 129.74 22.336 129.996 22.592C130.252 22.848 130.449 23.1733 130.588 23.568C130.737 23.9627 130.812 24.432 130.812 24.976V30H128.796V25.488C128.796 24.9227 128.657 24.48 128.38 24.16C128.113 23.8293 127.724 23.664 127.212 23.664C126.615 23.664 126.167 23.8667 125.868 24.272C125.58 24.6667 125.436 25.2 125.436 25.872V30ZM138.353 28.848C138.139 29.3493 137.841 29.7067 137.457 29.92C137.073 30.1227 136.625 30.224 136.113 30.224C135.633 30.224 135.179 30.1333 134.753 29.952C134.337 29.7707 133.969 29.504 133.649 29.152C133.329 28.8 133.073 28.3733 132.881 27.872C132.699 27.3707 132.609 26.8 132.609 26.16V25.904C132.609 25.2747 132.699 24.7093 132.881 24.208C133.062 23.7067 133.307 23.28 133.617 22.928C133.926 22.576 134.283 22.3093 134.689 22.128C135.105 21.936 135.547 21.84 136.017 21.84C136.582 21.84 137.035 21.936 137.377 22.128C137.729 22.32 138.006 22.6187 138.209 23.024H138.497V22.064H140.513V27.6C140.513 27.92 140.657 28.08 140.945 28.08H141.249V30H139.873C139.51 30 139.211 29.8933 138.977 29.68C138.753 29.4667 138.641 29.1893 138.641 28.848H138.353ZM136.561 28.304C137.147 28.304 137.617 28.112 137.969 27.728C138.321 27.3333 138.497 26.8 138.497 26.128V25.936C138.497 25.264 138.321 24.736 137.969 24.352C137.617 23.9573 137.147 23.76 136.561 23.76C135.974 23.76 135.505 23.9573 135.153 24.352C134.801 24.736 134.625 25.264 134.625 25.936V26.128C134.625 26.8 134.801 27.3333 135.153 27.728C135.505 28.112 135.974 28.304 136.561 28.304ZM148.678 28.848H148.39C148.304 29.0293 148.198 29.2053 148.07 29.376C147.952 29.536 147.792 29.68 147.59 29.808C147.398 29.936 147.163 30.0373 146.886 30.112C146.619 30.1867 146.294 30.224 145.91 30.224C145.419 30.224 144.96 30.1387 144.534 29.968C144.118 29.7867 143.75 29.5253 143.43 29.184C143.12 28.832 142.875 28.4053 142.694 27.904C142.523 27.4027 142.438 26.8267 142.438 26.176V25.888C142.438 25.248 142.528 24.6773 142.71 24.176C142.902 23.6747 143.158 23.2533 143.478 22.912C143.808 22.56 144.187 22.2933 144.614 22.112C145.051 21.9307 145.51 21.84 145.99 21.84C146.63 21.84 147.136 21.9627 147.51 22.208C147.883 22.4427 148.176 22.7787 148.39 23.216H148.678V22.064H150.694V31.952C150.694 32.3147 150.576 32.6133 150.342 32.848C150.118 33.0827 149.824 33.2 149.462 33.2H144.118V31.28H148.246C148.534 31.28 148.678 31.12 148.678 30.8V28.848ZM146.566 28.304C147.195 28.304 147.702 28.1067 148.086 27.712C148.48 27.3067 148.678 26.7787 148.678 26.128V25.936C148.678 25.2853 148.48 24.7627 148.086 24.368C147.702 23.9627 147.195 23.76 146.566 23.76C145.936 23.76 145.424 23.9573 145.03 24.352C144.646 24.736 144.454 25.264 144.454 25.936V26.128C144.454 26.8 144.646 27.3333 145.03 27.728C145.424 28.112 145.936 28.304 146.566 28.304ZM154.587 26.688C154.597 26.9227 154.651 27.1413 154.747 27.344C154.853 27.536 154.992 27.7067 155.163 27.856C155.344 27.9947 155.547 28.1067 155.771 28.192C156.005 28.2667 156.251 28.304 156.507 28.304C157.008 28.304 157.392 28.2187 157.659 28.048C157.925 27.8667 158.117 27.6533 158.235 27.408L159.963 28.368C159.867 28.5707 159.733 28.784 159.562 29.008C159.392 29.2213 159.168 29.4187 158.891 29.6C158.624 29.7813 158.293 29.9307 157.899 30.048C157.515 30.1653 157.061 30.224 156.539 30.224C155.941 30.224 155.397 30.128 154.907 29.936C154.416 29.744 153.989 29.4667 153.627 29.104C153.275 28.7413 152.997 28.2987 152.795 27.776C152.603 27.2533 152.507 26.6613 152.507 26V25.904C152.507 25.296 152.608 24.7413 152.811 24.24C153.024 23.7387 153.312 23.312 153.674 22.96C154.037 22.608 154.459 22.336 154.939 22.144C155.429 21.9413 155.952 21.84 156.507 21.84C157.189 21.84 157.776 21.9627 158.267 22.208C158.757 22.4427 159.163 22.7467 159.483 23.12C159.803 23.4827 160.037 23.888 160.187 24.336C160.336 24.7733 160.411 25.2 160.411 25.616V26.688H154.587ZM156.491 23.664C155.979 23.664 155.563 23.7973 155.243 24.064C154.923 24.32 154.715 24.6187 154.619 24.96H158.363C158.299 24.5867 158.096 24.2773 157.755 24.032C157.424 23.7867 157.003 23.664 156.491 23.664ZM162.223 22.064H165.583V23.216H165.871C166.021 22.7787 166.271 22.4427 166.623 22.208C166.986 21.9627 167.418 21.84 167.919 21.84C168.709 21.84 169.343 22.0907 169.823 22.592C170.303 23.0827 170.543 23.8347 170.543 24.848V25.2L168.463 25.392V25.168C168.463 24.7307 168.351 24.384 168.127 24.128C167.903 23.8613 167.567 23.728 167.119 23.728C166.671 23.728 166.319 23.8827 166.063 24.192C165.807 24.5013 165.679 24.944 165.679 25.52V28.08H167.503V30H162.031V28.08H163.663V23.984H162.223V22.064Z" fill="#EDF2F7"/>
</svg>
